<svg width="48" height="49" viewBox="0 0 48 49" fill="none" xmlns="http://www.w3.org/2000/svg">
<g clip-path="url(#clip0_550_2736)">
<path d="M48 21.4121C48 18.9266 45.9847 16.9121 43.5 16.9121H30.75L32.25 3.41211C32.4068 1.77111 31.2847 0.412109 29.6265 0.412109H26.6257C24.75 0.412109 23.9692 1.72461 23.25 3.41211L17.25 16.9121C15.6338 20.7889 13.5 21.4121 12 21.4121C11.25 21.4121 10.5 21.4121 10.5 21.4121V19.9121C10.5 18.2531 9.15825 16.9121 7.5 16.9121H3C1.34175 16.9121 0 18.2531 0 19.9121V45.4121C0 47.0696 1.34175 48.4121 3 48.4121H7.5C9.15825 48.4121 10.5 47.0696 10.5 45.4121V43.9121C11.25 43.9121 13.224 43.9511 15.1575 45.9349C17.493 48.3326 20.2822 48.4121 21.75 48.4121H39C41.4847 48.4121 43.5 46.3961 43.5 43.9121C43.5 42.6139 42.9473 41.4461 42.0675 40.6249C43.7783 39.9889 45 38.3449 45 36.4121C45 35.1139 44.4473 33.9461 43.5675 33.1249C45.2783 32.4889 46.5 30.8449 46.5 28.9121C46.5 27.6139 45.9473 26.4461 45.0675 25.6249C46.7783 24.9889 48 23.3449 48 21.4121ZM9 45.4121C9 46.2401 8.328 46.9121 7.5 46.9121H3C2.172 46.9121 1.5 46.2401 1.5 45.4121V19.9121C1.5 19.0834 2.172 18.4121 3 18.4121H7.5C8.328 18.4121 9 19.0834 9 19.9121V45.4121ZM43.5 24.4121H36C35.5853 24.4121 35.25 24.7466 35.25 25.1621C35.25 25.5761 35.5853 25.9121 36 25.9121H42C43.6568 25.9121 45 27.2546 45 28.9121C45 30.5689 43.6568 31.9121 42 31.9121H34.5C34.0853 31.9121 33.75 32.2466 33.75 32.6621C33.75 33.0761 34.0853 33.4121 34.5 33.4121H40.5C42.1568 33.4121 43.5 34.7546 43.5 36.4121C43.5 38.0689 42.1568 39.4121 40.5 39.4121H33C32.5853 39.4121 32.25 39.7466 32.25 40.1621C32.25 40.5761 32.5853 40.9121 33 40.9121H39C40.6568 40.9121 42 42.2546 42 43.9121C42 45.5689 40.6568 46.9121 39 46.9121H21.75C21 46.9121 18.2288 46.9376 16.2315 44.8879C13.899 42.4939 12.084 42.4144 10.5 42.4121V22.9121H12C15 22.9121 16.9275 21.7339 18.9375 16.9121L24.75 3.41211C25.1408 2.58411 25.6095 1.91211 26.4382 1.91211H29.25C30.078 1.91211 30.8445 2.53761 30.75 3.41211L29.2575 16.9121C29.1585 18.1669 29.943 18.4121 30.75 18.4121H43.5C45.1568 18.4121 46.5 19.7546 46.5 21.4121C46.5 23.0689 45.1568 24.4121 43.5 24.4121Z" fill="#F11CDC"/>
<path d="M5.25 40.9121C4.00725 40.9121 3 41.9186 3 43.1621C3 44.4041 4.00725 45.4121 5.25 45.4121C6.49275 45.4121 7.5 44.4041 7.5 43.1621C7.5 41.9186 6.49275 40.9121 5.25 40.9121ZM5.25 43.9121C4.83525 43.9121 4.5 43.5754 4.5 43.1621C4.5 42.7474 4.83525 42.4121 5.25 42.4121C5.66475 42.4121 6 42.7474 6 43.1621C6 43.5754 5.66475 43.9121 5.25 43.9121Z" fill="#F11CDC"/>
</g>
<defs>
<clipPath id="clip0_550_2736">
<rect width="48" height="48" fill="white" transform="translate(0 0.412109)"/>
</clipPath>
</defs>
</svg>
