<svg width="85" height="73" viewBox="0 0 85 73" fill="none" xmlns="http://www.w3.org/2000/svg">
<mask id="path-1-inside-1_2051_2731" fill="white">
<path d="M6.36951 37.1295C2.29118 33.0512 0 27.5198 0 21.7522C0 15.9845 2.29118 10.4532 6.36951 6.37482C10.4478 2.2965 15.9792 0.00531509 21.7469 0.00531509C27.5145 0.00531509 33.0459 2.2965 37.1242 6.37482L42.23 11.4806L47.3307 6.37482C51.409 2.2945 56.9412 0.00141014 62.7102 6.50156e-07C68.4793 -0.00140884 74.0126 2.28898 78.0929 6.36731C82.1732 10.4456 84.4663 15.9778 84.4677 21.7469C84.4691 27.5159 82.1788 33.0492 78.1004 37.1295L73.5007 41.7392L42.24 73L6.36951 37.1295Z"/>
</mask>
<path d="M6.36951 37.1295C2.29118 33.0512 0 27.5198 0 21.7522C0 15.9845 2.29118 10.4532 6.36951 6.37482C10.4478 2.2965 15.9792 0.00531509 21.7469 0.00531509C27.5145 0.00531509 33.0459 2.2965 37.1242 6.37482L42.23 11.4806L47.3307 6.37482C51.409 2.2945 56.9412 0.00141014 62.7102 6.50156e-07C68.4793 -0.00140884 74.0126 2.28898 78.0929 6.36731C82.1732 10.4456 84.4663 15.9778 84.4677 21.7469C84.4691 27.5159 82.1788 33.0492 78.1004 37.1295L73.5007 41.7392L42.24 73L6.36951 37.1295Z" fill="#FFC700" stroke="black" stroke-width="6" mask="url(#path-1-inside-1_2051_2731)"/>
</svg>
