<svg width="48" height="48" viewBox="0 0 48 48" fill="none" xmlns="http://www.w3.org/2000/svg">
<path d="M19.2137 39.3423C19.599 39.693 19.9949 40.041 20.389 40.3935C21.3125 41.5231 22.1882 42.6903 22.986 43.92C23.1261 44.1588 23.3874 44.2857 23.6479 44.2784C23.9397 44.8185 24.9449 44.5326 24.7551 43.8066C24.6377 42.9055 24.1686 42.0957 23.6663 41.3546C23.3675 40.955 23.054 40.5694 22.7328 40.1912C20.0607 36.2802 16.6421 32.9631 13.5436 29.3988C10.1592 25.6387 7.09227 20.9999 7.79653 15.7087C7.91574 10.8871 11.3579 9.66477 15.1718 12.1661C16.5251 12.9701 17.7507 13.9599 18.9425 14.9828C19.6663 15.5299 20.5163 16.5484 21.5035 16.0002C22.5783 15.1116 23.0618 13.6512 23.8926 12.541C25.6731 10.266 27.7473 7.85702 30.6268 7.0501C33.1609 6.44003 36.1531 6.98866 38.0834 8.81296C41.2003 12.2342 41.1367 17.5827 38.9547 21.4834C38.9591 21.4746 38.9639 21.4657 38.9679 21.4565C38.9727 21.4477 38.9771 21.4392 38.9812 21.4304C37.0929 24.9624 34.756 28.2309 32.3915 31.4755C29.5973 34.2579 27.0459 37.217 25.8998 41.1114C25.6738 41.3149 25.7452 41.699 25.9947 41.8451C26.5216 42.1295 26.7107 41.4654 26.9569 41.1342C27.1651 41.1997 27.408 41.15 27.5537 40.9105C29.4008 38.2576 31.8021 36.0708 33.8497 33.5798C35.6428 31.4089 37.6028 29.245 39.3208 26.9397C39.3955 26.8569 39.4709 26.7753 39.5453 26.6925C39.6343 26.5917 39.7009 26.4816 39.744 26.3617C41.6897 23.6547 43.2619 20.7394 43.8146 17.3811C45.5171 7.00079 35.1619 0.6161 26.3799 5.88848C23.9397 7.45154 22.3446 9.98598 20.9376 12.456C18.9109 10.844 16.8073 9.21843 14.3015 8.43396C8.17294 6.63063 4.29399 10.3554 4 16.4057C4.02208 21.1463 6.25959 26.2745 9.11527 30C11.9993 33.5827 15.7995 36.2968 19.2137 39.3423Z" fill="#F11CDC"/>
</svg>
