<svg width="48" height="49" viewBox="0 0 48 49" fill="none" xmlns="http://www.w3.org/2000/svg">
<path d="M24.0032 1.875C15.2163 1.875 8.06763 9.02372 8.06763 17.8107C8.06763 23.6665 11.2185 28.9712 16.3267 31.7786V35.8542H16.3233V39.1107H16.3187V44.0504H20.9235C21.019 45.6642 22.3615 46.9479 23.9986 46.9479C25.6357 46.9479 26.9782 45.6642 27.0735 44.0504H31.6754V40.7938H31.6802V35.8542H31.6797V31.7786C36.7878 28.9712 39.9387 23.6665 39.9387 17.8107C39.9387 9.02372 32.7901 1.875 24.0032 1.875ZM18.0064 37.5373H29.997V39.1108H18.0064V37.5373ZM23.9986 45.2649C23.2135 45.2649 22.7019 44.6647 22.6153 44.0504H25.3829C25.2925 44.7347 24.7069 45.2649 23.9986 45.2649ZM29.9923 42.3673H18.0018V40.7939H29.9923V42.3673ZM30.4566 30.5217L29.9966 30.7558V35.8079H24.8417V23.3715L29.8337 18.3792C30.1623 18.0506 30.1623 17.5178 29.8336 17.1891C29.5051 16.8606 28.9722 16.8605 28.6435 17.1892L24.0001 21.8328L19.3568 17.1892C19.0282 16.8606 18.4953 16.8605 18.1667 17.1891C17.8379 17.5179 17.8379 18.0506 18.1665 18.3792L23.1586 23.3715V35.8079H18.0098V30.7558L17.5498 30.5217C12.7391 28.0743 9.75075 23.2036 9.75075 17.8107C9.75075 9.9518 16.1444 3.55817 24.0032 3.55817C31.862 3.55817 38.2556 9.9518 38.2556 17.8107C38.2556 23.2036 35.2672 28.0743 30.4566 30.5217Z" fill="#F11CDC"/>
<path d="M28.4446 6.97656C27.9798 6.97656 27.603 7.35331 27.603 7.81814C27.603 8.28296 27.9798 8.65968 28.4446 8.65968C29.7683 8.65968 32.871 10.2499 32.871 13.3338C32.871 13.7986 33.2477 14.1754 33.7125 14.1754C34.1773 14.1754 34.5541 13.7986 34.5541 13.3338C34.5541 9.15992 30.5768 6.97656 28.4446 6.97656Z" fill="#F11CDC"/>
<path d="M5.58224 19.4216C5.58224 18.9568 5.2055 18.5801 4.7407 18.5801H0.925043C0.460243 18.5801 0.0834961 18.9568 0.0834961 19.4216C0.0834961 19.8864 0.460243 20.2632 0.925043 20.2632H4.7407C5.2055 20.2632 5.58224 19.8865 5.58224 19.4216Z" fill="#F11CDC"/>
<path d="M5.87102 8.4137C6.03539 8.57805 6.25072 8.66024 6.46614 8.66024C6.68147 8.66024 6.89688 8.57805 7.06115 8.41381C7.3899 8.08506 7.3899 7.55229 7.06126 7.2237L4.36344 4.52573C4.03496 4.19722 3.50203 4.19712 3.17331 4.52562C2.84459 4.85434 2.84459 5.38714 3.1732 5.71576L5.87102 8.4137Z" fill="#F11CDC"/>
<path d="M5.87139 30.4299L3.17331 33.1279C2.84459 33.4566 2.84459 33.9894 3.1732 34.3181C3.33758 34.4825 3.55288 34.5647 3.76832 34.5647C3.98363 34.5647 4.19907 34.4825 4.36331 34.3181L7.06142 31.6202C7.39014 31.2915 7.39014 30.7587 7.06152 30.4302C6.73294 30.1014 6.2 30.1014 5.87139 30.4299Z" fill="#F11CDC"/>
<path d="M47.0751 18.5801H43.2595C42.7947 18.5801 42.418 18.9568 42.418 19.4216C42.418 19.8864 42.7947 20.2632 43.2595 20.2632H47.0751C47.5399 20.2632 47.9166 19.8864 47.9166 19.4216C47.9166 18.9568 47.5399 18.5801 47.0751 18.5801Z" fill="#F11CDC"/>
<path d="M41.534 8.66029C41.7493 8.66029 41.9647 8.5781 42.1291 8.41386L44.8271 5.71592C45.1556 5.3872 45.1556 4.8544 44.8271 4.52568C44.4983 4.19717 43.9655 4.19717 43.6368 4.52568L40.9388 7.22362C40.6102 7.55237 40.6102 8.08514 40.9388 8.41386C41.1032 8.5781 41.3187 8.66029 41.534 8.66029Z" fill="#F11CDC"/>
<path d="M42.129 30.4299C41.8005 30.1014 41.2676 30.1014 40.9388 30.4302C40.6102 30.7587 40.6102 31.2915 40.939 31.6202L43.637 34.3181C43.8013 34.4825 44.0167 34.5647 44.232 34.5647C44.4474 34.5647 44.6628 34.4825 44.8272 34.3181C45.1558 33.9894 45.1558 33.4566 44.827 33.1279L42.129 30.4299Z" fill="#F11CDC"/>
</svg>
