<svg width="48" height="49" viewBox="0 0 48 49" fill="none" xmlns="http://www.w3.org/2000/svg">
<g clip-path="url(#clip0_503_2181)">
<path d="M14.325 35.0629C13.275 34.7629 12.225 34.3879 11.325 33.9379C4.95 31.2379 0.75 26.4379 0.75 20.9629C0.75 12.4879 10.95 5.58789 23.625 5.58789C36.225 5.58789 46.65 12.4879 46.65 20.9629C46.65 29.4379 36.3 36.3379 23.625 36.3379C23.025 36.3379 22.35 36.3379 21.75 36.2629L6.825 43.0879L11.325 34.0129" stroke="#F11CDC" stroke-width="1.875"/>
<path d="M16.125 22.9121C16.7463 22.9121 17.25 22.4084 17.25 21.7871C17.25 21.1658 16.7463 20.6621 16.125 20.6621C15.5037 20.6621 15 21.1658 15 21.7871C15 22.4084 15.5037 22.9121 16.125 22.9121Z" stroke="#F11CDC" stroke-width="1.875"/>
<path d="M24.375 22.9121C24.9963 22.9121 25.5 22.4084 25.5 21.7871C25.5 21.1658 24.9963 20.6621 24.375 20.6621C23.7537 20.6621 23.25 21.1658 23.25 21.7871C23.25 22.4084 23.7537 22.9121 24.375 22.9121Z" stroke="#F11CDC" stroke-width="1.875"/>
<path d="M31.875 22.9121C32.4963 22.9121 33 22.4084 33 21.7871C33 21.1658 32.4963 20.6621 31.875 20.6621C31.2537 20.6621 30.75 21.1658 30.75 21.7871C30.75 22.4084 31.2537 22.9121 31.875 22.9121Z" stroke="#F11CDC" stroke-width="1.875"/>
</g>
<defs>
<clipPath id="clip0_503_2181">
<rect width="48" height="48" fill="white" transform="translate(0 0.412109)"/>
</clipPath>
</defs>
</svg>
