<svg width="48" height="48" viewBox="0 0 48 48" fill="none" xmlns="http://www.w3.org/2000/svg">
<path d="M7.46686 22.9997C5.68042 20.6533 5.37338 18.7423 6.54575 17.2665C7.71812 15.7908 9.47634 15.5533 11.8204 16.554C10.5585 13.797 10.6612 12.0728 12.1283 11.3816C13.5955 10.6904 15.8756 10.5193 18.9686 10.8683C21.1864 8.07949 23.5665 6.78354 26.1088 6.98041C29.9222 7.27569 32.5988 7.97679 33.7347 12.9554C34.1432 13.9382 39.2883 12.4185 41.1769 15.4261C43.0653 18.4338 42.6898 22.3833 41.1769 22.6915C39.6638 22.9997 44.8451 22.4305 42.8122 25.5737C42.1006 26.6739 38.9492 29.5053 36.7689 30.1368C32.7205 31.3093 28.7242 29.6496 26.6821 28.7353C25.8808 27.722 22.54 32.5789 18.0777 32.3093C15.1028 32.1295 13.4175 30.6005 13.022 27.722C11.7415 28.8983 10.0886 29.2361 8.06301 28.7353C5.02468 27.9842 3.8245 25.3614 5.68875 23.8187" stroke="#F11CDC" stroke-width="1.4" stroke-linecap="round" stroke-linejoin="round"/>
<path d="M9.09655 33.3642C9.21743 33.0911 9.46666 32.9196 9.73181 32.8522C9.88346 32.8136 9.98084 32.8069 10.1347 32.7796C10.354 32.7407 10.7444 32.8511 10.8877 32.9203C11.1701 33.057 11.31 33.3038 11.4244 33.5756C11.5235 33.8111 11.6004 34.0697 11.5813 34.3302C11.5813 34.4437 11.5574 34.5497 11.5344 34.6615C11.384 35.3927 10.7312 35.7259 10.3815 35.7614C10.0186 35.7982 9.67657 35.7378 9.36696 35.5243C9.28321 35.4665 9.04301 35.2604 8.9639 35.0334C8.87416 34.7758 8.77316 34.4986 8.85349 34.2122C8.88638 34.0951 8.89366 33.9624 8.99052 33.8635" stroke="#F11CDC" stroke-width="1.4" stroke-linecap="round" stroke-linejoin="round"/>
<path d="M6.40137 39.3466C6.48545 39.15 6.65883 39.0266 6.84328 38.978C6.94878 38.9502 7.01652 38.9454 7.12356 38.9258C7.27614 38.8977 7.54769 38.9772 7.64736 39.027C7.84384 39.1254 7.94115 39.3032 8.02072 39.4989C8.08966 39.6684 8.14316 39.8546 8.12988 40.0421C8.12991 40.1238 8.11323 40.2002 8.09723 40.2807C7.99263 40.8071 7.5385 41.0471 7.29526 41.0727C7.04278 41.0991 6.80485 41.0556 6.58948 40.9019C6.53121 40.8603 6.36412 40.712 6.30909 40.5485C6.24665 40.363 6.17639 40.1634 6.23229 39.9573C6.25516 39.8729 6.26021 39.7774 6.3276 39.7062" stroke="#F11CDC" stroke-width="1.4" stroke-linecap="round" stroke-linejoin="round"/>
</svg>
