<svg width="148" height="36" viewBox="0 0 148 36" fill="none" xmlns="http://www.w3.org/2000/svg">
<path d="M20.144 21.832C20.496 21.528 20.804 21.404 21.068 21.46C21.332 21.516 21.464 21.776 21.464 22.24C21.464 22.368 21.432 22.504 21.368 22.648C21.304 22.792 21.232 22.916 21.152 23.02C21.072 23.124 20.952 23.244 20.792 23.38C20.632 23.516 20.508 23.616 20.42 23.68C20.332 23.744 20.196 23.836 20.012 23.956C19.828 24.076 19.72 24.152 19.688 24.184C19.304 24.44 18.912 24.656 18.512 24.832C18.448 24.848 18.312 24.916 18.104 25.036C17.896 25.156 17.684 25.272 17.468 25.384C17.252 25.496 17 25.62 16.712 25.756C16.424 25.892 16.168 25.992 15.944 26.056C15.72 26.12 15.488 26.168 15.248 26.2C15.008 26.232 14.84 26.2 14.744 26.104C14.136 26.072 13.352 25.776 12.392 25.216C11.08 24.464 10.344 23.736 10.184 23.032C10.04 22.552 9.88 22.312 9.704 22.312C9.544 22.312 8.656 22.976 7.04 24.304C5.68 25.344 4.692 25.988 4.076 26.236C3.46 26.484 2.864 26.44 2.288 26.104C1.728 25.832 1.212 25.396 0.74 24.796C0.268 24.196 0.032 23.68 0.032 23.248C0.032 22.736 0.176 21.96 0.464 20.92C0.752 19.88 0.976 19.28 1.136 19.12C1.344 18.896 1.448 18.528 1.448 18.016C1.448 17.728 1.588 17.328 1.868 16.816C2.148 16.304 2.288 15.896 2.288 15.592C2.288 15.176 2.384 14.904 2.576 14.776C2.768 14.648 3.152 13.968 3.728 12.736C4.304 11.504 4.704 10.48 4.928 9.664C5.12 8.992 5.404 8.372 5.78 7.804C6.156 7.236 6.424 7 6.584 7.096C6.744 7.192 7.496 6.696 8.84 5.608C9.896 4.728 10.768 4.092 11.456 3.7C12.144 3.308 13.04 2.936 14.144 2.584C15.104 2.296 15.704 2.16 15.944 2.176C16.168 2.208 16.592 2.48 17.216 2.992C17.648 3.344 17.932 3.64 18.068 3.88C18.204 4.12 18.272 4.488 18.272 4.984C18.272 5.752 17.896 7.032 17.144 8.824C16.952 9.224 16.648 10.016 16.232 11.2C15.864 12.384 15.488 13.288 15.104 13.912C14.784 14.44 14.56 15.112 14.432 15.928C14.32 16.648 14.168 17.216 13.976 17.632C13.928 17.728 13.648 18.496 13.136 19.936C12.832 20.736 12.676 21.272 12.668 21.544C12.66 21.816 12.76 22.152 12.968 22.552C13.288 23.144 13.656 23.44 14.072 23.44C14.552 23.504 15.016 23.736 15.464 24.136C15.496 24.152 15.52 24.164 15.536 24.172C15.552 24.18 15.568 24.196 15.584 24.22C15.6 24.244 15.616 24.256 15.632 24.256C15.792 24.176 16.06 24.072 16.436 23.944C16.812 23.816 17.072 23.712 17.216 23.632C18.448 22.992 19.424 22.392 20.144 21.832ZM11.384 14.776C11.928 13.928 12.336 13.096 12.608 12.28C12.992 11.128 13.312 10.352 13.568 9.952C13.84 9.568 13.976 9.16 13.976 8.728C13.976 8.328 14.072 8.056 14.264 7.912C14.392 7.832 14.672 7.408 15.104 6.64C15.536 5.872 15.66 5.408 15.476 5.248C15.292 5.088 14.84 5.096 14.12 5.272C13.4 5.448 12.776 5.696 12.248 6.016C11.736 6.352 11.136 6.904 10.448 7.672C9.76 8.44 9.416 8.944 9.416 9.184C9.416 9.36 8.992 9.948 8.144 10.948C7.296 11.948 6.872 12.568 6.872 12.808C6.872 13.048 6.544 13.632 5.888 14.56C5.216 15.552 4.784 16.44 4.592 17.224C4.336 18.136 4.136 18.712 3.992 18.952C3.832 19.304 3.752 19.6 3.752 19.84C3.752 20.112 3.592 20.544 3.272 21.136C3 21.68 2.92 22.06 3.032 22.276C3.144 22.492 3.48 22.6 4.04 22.6C4.392 22.6 4.924 22.364 5.636 21.892C6.348 21.42 6.864 20.944 7.184 20.464C7.248 20.432 7.328 20.344 7.424 20.2C7.552 20.024 7.688 19.84 7.832 19.648C7.992 19.424 8.144 19.224 8.288 19.048C9.808 17.048 10.84 15.624 11.384 14.776ZM18.7816 21.688C19.0376 21.256 19.5336 20.268 20.2696 18.724C21.0056 17.18 21.6376 16.096 22.1656 15.472C22.2456 15.36 22.3336 15.256 22.4296 15.16C22.6216 14.952 22.8856 14.796 23.2216 14.692C23.5576 14.588 23.8616 14.6 24.1336 14.728C24.2296 14.792 24.2976 14.96 24.3376 15.232C24.3776 15.504 24.4376 15.648 24.5176 15.664C24.6296 15.68 24.9016 15.536 25.3336 15.232C26.0696 14.72 27.2296 14.296 28.8136 13.96C29.4536 13.8 29.8696 13.736 30.0616 13.768C30.2536 13.8 30.4936 13.944 30.7816 14.2C31.1496 14.568 31.3416 15.016 31.3576 15.544C31.3736 16.072 31.1976 16.568 30.8296 17.032C30.5576 17.432 30.2056 18.224 29.7736 19.408C29.3416 20.592 29.1256 21.408 29.1256 21.856C29.1256 22.176 29.2336 22.524 29.4496 22.9C29.6656 23.276 29.9296 23.588 30.2416 23.836C30.5536 24.084 30.8376 24.208 31.0936 24.208C31.4776 24.208 32.2856 23.888 33.5176 23.248C34.7496 22.608 35.7176 22 36.4216 21.424C36.9496 21.024 37.3256 20.836 37.5496 20.86C37.7736 20.884 37.8856 21.12 37.8856 21.568C37.8856 21.76 37.8016 21.98 37.6336 22.228C37.4656 22.476 37.2456 22.736 36.9736 23.008C36.6856 23.264 36.3496 23.524 35.9656 23.788C35.5816 24.052 35.1896 24.264 34.7896 24.424C33.7336 24.92 32.9736 25.28 32.5096 25.504C31.7096 25.872 31.0016 25.976 30.3856 25.816C29.7696 25.656 29.0456 25.16 28.2136 24.328C27.5416 23.656 27.1456 23.196 27.0256 22.948C26.9056 22.7 26.8456 22.224 26.8456 21.52C26.8456 20.496 27.0296 19.432 27.3976 18.328C27.7176 17.224 27.8456 16.624 27.7816 16.528C27.6856 16.432 27.0376 16.948 25.8376 18.076C24.6376 19.204 23.4616 20.396 22.3096 21.652C21.1576 22.908 20.5816 23.632 20.5816 23.824C20.5816 23.984 20.4816 24.16 20.2816 24.352C20.0816 24.544 19.8376 24.7 19.5496 24.82C19.2616 24.94 19.0056 24.976 18.7816 24.928C18.4136 24.88 18.1576 24.592 18.0136 24.064C17.9016 23.712 17.8856 23.4 17.9656 23.128C18.0456 22.856 18.3176 22.376 18.7816 21.688ZM35.6332 21.688C35.8892 21.256 36.3852 20.268 37.1212 18.724C37.8572 17.18 38.4892 16.096 39.0172 15.472C39.0972 15.36 39.1852 15.256 39.2812 15.16C39.4732 14.952 39.7372 14.796 40.0732 14.692C40.4092 14.588 40.7132 14.6 40.9852 14.728C41.0812 14.792 41.1492 14.96 41.1892 15.232C41.2292 15.504 41.2892 15.648 41.3692 15.664C41.4812 15.68 41.7532 15.536 42.1852 15.232C42.9212 14.72 44.0812 14.296 45.6652 13.96C46.3052 13.8 46.7212 13.736 46.9132 13.768C47.1052 13.8 47.3452 13.944 47.6332 14.2C48.0012 14.568 48.1932 15.016 48.2092 15.544C48.2252 16.072 48.0492 16.568 47.6812 17.032C47.4092 17.432 47.0572 18.224 46.6252 19.408C46.1932 20.592 45.9772 21.408 45.9772 21.856C45.9772 22.176 46.0852 22.524 46.3012 22.9C46.5172 23.276 46.7812 23.588 47.0932 23.836C47.4052 24.084 47.6892 24.208 47.9452 24.208C48.3292 24.208 49.1372 23.888 50.3692 23.248C51.6012 22.608 52.5692 22 53.2732 21.424C53.8012 21.024 54.1772 20.836 54.4012 20.86C54.6252 20.884 54.7372 21.12 54.7372 21.568C54.7372 21.76 54.6532 21.98 54.4852 22.228C54.3172 22.476 54.0972 22.736 53.8252 23.008C53.5372 23.264 53.2012 23.524 52.8172 23.788C52.4332 24.052 52.0412 24.264 51.6412 24.424C50.5852 24.92 49.8252 25.28 49.3612 25.504C48.5612 25.872 47.8532 25.976 47.2372 25.816C46.6212 25.656 45.8972 25.16 45.0652 24.328C44.3932 23.656 43.9972 23.196 43.8772 22.948C43.7572 22.7 43.6972 22.224 43.6972 21.52C43.6972 20.496 43.8812 19.432 44.2492 18.328C44.5692 17.224 44.6972 16.624 44.6332 16.528C44.5372 16.432 43.8892 16.948 42.6892 18.076C41.4892 19.204 40.3132 20.396 39.1612 21.652C38.0092 22.908 37.4332 23.632 37.4332 23.824C37.4332 23.984 37.3332 24.16 37.1332 24.352C36.9332 24.544 36.6892 24.7 36.4012 24.82C36.1132 24.94 35.8572 24.976 35.6332 24.928C35.2652 24.88 35.0092 24.592 34.8652 24.064C34.7532 23.712 34.7372 23.4 34.8172 23.128C34.8972 22.856 35.1692 22.376 35.6332 21.688ZM68.8288 22.072C69.1328 21.832 69.3928 21.732 69.6088 21.772C69.8248 21.812 69.9328 22.024 69.9328 22.408C69.9328 22.488 69.9168 22.572 69.8848 22.66C69.8528 22.748 69.8168 22.828 69.7768 22.9C69.7368 22.972 69.6768 23.048 69.5968 23.128C69.5168 23.208 69.4448 23.28 69.3808 23.344C69.3168 23.408 69.2368 23.476 69.1408 23.548C69.0448 23.62 68.9648 23.676 68.9008 23.716C68.8368 23.756 68.7568 23.808 68.6608 23.872C68.5648 23.936 68.4928 23.984 68.4448 24.016C68.1408 24.224 67.8208 24.4 67.4848 24.544C67.4528 24.56 67.2608 24.656 66.9088 24.832L66.7888 24.976C66.3568 25.392 65.7328 25.648 64.9168 25.744C64.4048 25.808 64.0088 25.812 63.7288 25.756C63.4488 25.7 63.0608 25.56 62.5648 25.336C61.8288 24.984 61.3408 24.696 61.1008 24.472C60.9408 24.344 60.8048 24.288 60.6928 24.304C60.5808 24.32 60.3728 24.448 60.0688 24.688C59.0928 25.392 57.9288 25.788 56.5768 25.876C55.2248 25.964 54.3408 25.696 53.9248 25.072C53.6688 24.672 53.5528 23.896 53.5768 22.744C53.6008 21.592 53.7488 20.768 54.0208 20.272C54.2608 19.84 54.4448 19.52 54.5728 19.312C54.7168 19.104 54.8528 18.912 54.9808 18.736C55.1088 18.544 55.3248 18.264 55.6288 17.896C56.6368 16.648 57.4288 15.792 58.0048 15.328C58.4528 14.976 58.9808 14.676 59.5888 14.428C60.1968 14.18 60.8328 14.016 61.4968 13.936C62.1608 13.856 62.7488 13.944 63.2608 14.2C63.8848 14.52 64.2688 15.068 64.4128 15.844C64.5568 16.62 64.5408 17.372 64.3648 18.1C64.1888 18.828 63.9408 19.512 63.6208 20.152C63.3488 20.76 63.1448 21.424 63.0088 22.144C62.8728 22.864 62.8768 23.336 63.0208 23.56C63.3248 24.168 64.3248 24.208 66.0208 23.68C66.0848 23.664 66.1488 23.656 66.2128 23.656C66.3088 23.624 66.3808 23.592 66.4288 23.56C67.4528 23.032 68.2528 22.536 68.8288 22.072ZM61.5808 17.56C61.7568 17.464 61.8528 17.384 61.8688 17.32C61.8848 17.256 61.8448 17.176 61.7488 17.08C61.5568 16.872 61.2848 16.736 60.9328 16.672C60.5808 16.608 60.2368 16.624 59.9008 16.72C59.5648 16.8 59.0568 17.12 58.3768 17.68C57.6968 18.24 57.2368 18.72 56.9967 19.12C56.6768 19.584 56.4048 20 56.1808 20.368C55.9088 20.752 55.7248 21.312 55.6288 22.048C55.5328 22.784 55.5728 23.264 55.7488 23.488C55.9088 23.68 56.2608 23.776 56.8048 23.776C57.3488 23.776 57.8608 23.688 58.3408 23.512C58.8048 23.288 59.1488 22.952 59.3728 22.504C59.7568 21.752 60.0688 21.144 60.3088 20.68C60.7248 19.96 60.9328 19.472 60.9328 19.216C60.9328 19.056 61.0008 18.892 61.1368 18.724C61.2728 18.556 61.3088 18.376 61.2448 18.184C61.1648 17.928 61.2768 17.72 61.5808 17.56ZM100.582 22.072C100.918 21.784 101.214 21.668 101.47 21.724C101.726 21.78 101.854 22.024 101.854 22.456C101.854 22.584 101.834 22.704 101.794 22.816C101.754 22.928 101.694 23.036 101.614 23.14C101.534 23.244 101.454 23.34 101.374 23.428C101.294 23.516 101.186 23.608 101.05 23.704C100.914 23.8 100.806 23.88 100.726 23.944C100.646 24.008 100.538 24.084 100.402 24.172C100.266 24.26 100.174 24.32 100.126 24.352C99.5981 24.72 99.0301 25.024 98.4221 25.264C98.0861 25.488 97.5741 25.616 96.8861 25.648C96.6621 25.664 96.4541 25.664 96.2621 25.648C96.1341 25.648 96.0541 25.648 96.0221 25.648C94.9181 25.616 94.0861 25.444 93.5261 25.132C92.9661 24.82 91.9901 24 90.5981 22.672C88.8061 20.912 87.7901 20.088 87.5501 20.2C87.3421 20.28 86.9941 20.684 86.5061 21.412C86.0181 22.14 85.7741 22.632 85.7741 22.888C85.7741 23.128 85.5661 23.592 85.1501 24.28C84.7181 24.92 84.4301 25.48 84.2861 25.96C84.1581 26.488 83.9061 26.84 83.5301 27.016C83.1541 27.192 82.7941 27.124 82.4501 26.812C82.1061 26.5 81.9461 26.216 81.9701 25.96C81.9941 25.704 82.2621 25.048 82.7741 23.992C83.2061 23.048 83.4181 22.432 83.4101 22.144C83.4021 21.856 83.1501 21.712 82.6541 21.712C82.2541 21.712 81.7981 21.496 81.2861 21.064C80.9181 20.792 80.6861 20.548 80.5901 20.332C80.4941 20.116 80.4461 19.784 80.4461 19.336C80.4941 17.56 80.7021 16.344 81.0701 15.688C81.2301 15.4 81.4221 15.228 81.6461 15.172C81.8701 15.116 82.4541 15.12 83.3981 15.184C84.7581 15.28 85.5661 15.392 85.8221 15.52C86.5261 15.792 87.2381 15.356 87.9581 14.212C88.6781 13.068 89.0381 11.816 89.0381 10.456C89.0381 9.416 88.9141 8.856 88.6661 8.776C88.4181 8.696 88.0061 9.104 87.4301 10C86.9821 10.672 86.4861 11.104 85.9421 11.296C85.6221 11.376 85.2621 11.376 84.8621 11.296C84.4621 11.216 84.0901 11.072 83.7461 10.864C83.4021 10.656 83.1661 10.416 83.0381 10.144C82.8621 9.808 82.7981 9.248 82.8461 8.464C82.8941 7.68 83.0221 7.016 83.2301 6.472C83.4701 5.944 83.5901 5.588 83.5901 5.404C83.5901 5.22 83.9821 4.672 84.7661 3.76C85.5021 2.912 86.2301 2.24 86.9501 1.744C87.6701 1.248 88.5261 0.896 89.5181 0.688C90.0941 0.559999 90.5501 0.543999 90.8861 0.639997C91.4461 0.799999 91.8701 1.216 92.1581 1.888C92.7501 3.248 92.8941 5.176 92.5901 7.672C92.4461 8.856 92.2781 9.536 92.0861 9.712C91.9421 9.856 91.8701 10.288 91.8701 11.008C91.8701 11.584 91.6621 12.312 91.2461 13.192C90.8141 14.072 90.3101 14.808 89.7341 15.4C89.1901 15.976 89.0461 16.4 89.3021 16.672C89.3821 16.72 89.4901 16.744 89.6261 16.744C89.7621 16.744 90.3341 16.304 91.3421 15.424C92.3501 14.544 93.4381 13.52 94.6061 12.352C95.6621 11.296 96.5021 10.332 97.1261 9.46C97.7501 8.588 98.0621 7.944 98.0621 7.528C98.1101 7.128 98.1981 6.816 98.3261 6.592C98.4541 6.384 98.7301 6.28 99.1541 6.28C99.5781 6.28 99.9341 6.384 100.222 6.592C100.638 6.896 100.642 7.548 100.234 8.548C99.8261 9.548 99.1101 10.648 98.0861 11.848C97.1741 12.92 95.9021 14.212 94.2701 15.724C92.6381 17.236 91.6301 18.072 91.2461 18.232C90.8141 18.36 90.6661 18.672 90.8021 19.168C90.9381 19.664 91.3341 20.24 91.9901 20.896C92.8221 21.68 93.2381 22.192 93.2381 22.432C93.2381 22.64 93.4221 22.912 93.7901 23.248C93.8861 23.344 93.9981 23.424 94.1261 23.488C94.2541 23.552 94.4101 23.6 94.5941 23.632C94.7781 23.664 94.9421 23.692 95.0861 23.716C95.2301 23.74 95.4181 23.744 95.6501 23.728C95.8821 23.712 96.0621 23.7 96.1901 23.692C96.3181 23.684 96.5141 23.66 96.7781 23.62C97.0421 23.58 97.2101 23.552 97.2821 23.536C97.3541 23.52 97.5181 23.488 97.7741 23.44L98.1581 23.368C98.3981 23.32 98.6221 23.256 98.8301 23.176C99.0381 23.096 99.2501 22.988 99.4661 22.852C99.6821 22.716 99.8581 22.6 99.9941 22.504C100.13 22.408 100.326 22.264 100.582 22.072ZM86.9501 7.216C87.9741 6.24 88.2141 5.48 87.6701 4.936C87.4301 4.696 87.1581 4.584 86.8541 4.6C86.5501 4.616 86.3101 4.728 86.1341 4.936C85.8461 5.304 85.5781 5.828 85.3301 6.508C85.0821 7.188 84.9981 7.616 85.0781 7.792C85.3181 8.432 85.9421 8.24 86.9501 7.216ZM83.9621 19.036C84.2901 18.916 84.5781 18.752 84.8261 18.544C85.0741 18.336 85.1821 18.168 85.1501 18.04C85.0701 17.8 84.8021 17.668 84.3461 17.644C83.8901 17.62 83.5581 17.712 83.3501 17.92C83.1741 18.096 83.0701 18.308 83.0381 18.556C83.0061 18.804 83.0941 18.984 83.3021 19.096C83.4141 19.176 83.6341 19.156 83.9621 19.036ZM114.806 20.392C115.046 20.52 115.166 20.8 115.166 21.232C115.182 21.728 114.902 22.192 114.326 22.624C114.118 22.768 113.878 22.912 113.606 23.056C113.558 23.072 113.502 23.104 113.438 23.152C113.214 23.28 113.022 23.352 112.862 23.368C112.382 23.4 111.918 23.208 111.47 22.792C111.358 22.696 111.238 22.528 111.11 22.288L111.038 22.168C110.894 21.928 110.758 21.776 110.63 21.712C110.502 21.648 110.342 21.664 110.15 21.76C109.91 21.888 109.638 22.28 109.334 22.936C109.19 23.272 109.07 23.504 108.974 23.632C108.67 24.08 108.406 24.336 108.182 24.4C107.894 24.544 107.502 24.768 107.006 25.072C106.398 25.44 105.822 25.64 105.278 25.672C104.654 25.72 104.19 25.784 103.886 25.864C103.806 25.88 103.726 25.888 103.646 25.888C103.47 25.888 103.318 25.856 103.19 25.792C102.998 25.712 102.718 25.496 102.35 25.144C101.95 24.776 101.678 24.452 101.534 24.172C101.39 23.892 101.246 23.4 101.102 22.696C100.862 21.544 100.806 20.62 100.934 19.924C101.062 19.228 101.414 18.416 101.99 17.488C102.726 16.304 103.422 15.448 104.078 14.92C104.734 14.392 105.542 14.016 106.502 13.792C106.966 13.696 107.374 13.528 107.726 13.288C108.286 12.92 108.782 12.784 109.214 12.88C109.63 12.96 110.11 13.288 110.654 13.864C110.942 14.184 111.15 14.44 111.278 14.632C111.406 14.824 111.494 15.008 111.542 15.184C111.59 15.36 111.614 15.616 111.614 15.952C111.614 17.376 111.662 18.48 111.758 19.264C111.806 19.728 111.914 20.084 112.082 20.332C112.25 20.58 112.542 20.88 112.958 21.232L113.03 21.184C113.318 20.992 113.526 20.84 113.654 20.728C114.134 20.36 114.518 20.248 114.806 20.392ZM109.262 16.264C109.262 15.64 109.198 15.296 109.07 15.232C109.038 15.264 109.006 15.304 108.974 15.352C108.894 15.496 108.902 15.824 108.998 16.336C109.062 16.704 109.126 16.936 109.19 17.032C109.238 16.904 109.262 16.648 109.262 16.264ZM108.566 19.96C108.63 19.592 108.622 19.328 108.542 19.168C108.478 19.008 108.278 18.76 107.942 18.424C107.414 17.912 107.15 17.488 107.15 17.152C107.15 16.928 107.078 16.664 106.934 16.36C106.79 16.056 106.646 15.856 106.502 15.76C106.39 15.68 106.294 15.64 106.214 15.64C106.15 15.64 106.094 15.656 106.046 15.688C105.886 15.768 105.558 16.064 105.062 16.576C104.63 17.008 104.226 17.56 103.85 18.232C103.474 18.904 103.198 19.536 103.022 20.128C102.846 20.688 102.814 21.096 102.926 21.352C103.054 21.592 103.126 22 103.142 22.576C103.19 23.008 103.254 23.328 103.334 23.536C103.414 23.712 103.534 23.832 103.694 23.896C103.87 23.976 104.158 24.016 104.558 24.016C104.75 24.016 104.91 24.008 105.038 23.992C105.166 23.992 105.286 23.976 105.398 23.944C105.51 23.912 105.614 23.872 105.71 23.824C105.822 23.76 105.934 23.688 106.046 23.608C106.158 23.528 106.294 23.424 106.454 23.296C107.062 22.816 107.406 22.432 107.486 22.144C107.582 21.84 107.774 21.52 108.062 21.184C108.318 20.912 108.486 20.504 108.566 19.96ZM131.892 21.328C132.228 21.024 132.528 20.9 132.792 20.956C133.056 21.012 133.196 21.264 133.212 21.712C133.212 21.824 133.192 21.936 133.152 22.048C133.112 22.16 133.068 22.26 133.02 22.348C132.972 22.436 132.9 22.528 132.804 22.624C132.708 22.72 132.62 22.804 132.54 22.876C132.46 22.948 132.364 23.024 132.252 23.104C132.14 23.184 132.044 23.252 131.964 23.308C131.884 23.364 131.788 23.428 131.676 23.5C131.564 23.572 131.476 23.632 131.412 23.68C131.012 23.952 130.524 24.252 129.948 24.58C129.372 24.908 128.804 25.232 128.244 25.552C127.684 25.872 127.196 26.184 126.78 26.488C125.948 27.112 125.032 27.924 124.032 28.924C123.032 29.924 122.028 30.924 121.02 31.924C120.012 32.924 119.068 33.744 118.188 34.384C117.564 34.848 116.972 34.98 116.412 34.78C115.852 34.58 115.492 34.08 115.332 33.28C115.268 32.896 115.332 32.384 115.524 31.744C115.764 30.944 116.172 30.216 116.748 29.56C117.18 29.048 117.9 28.52 118.908 27.976C119.116 27.864 119.348 27.716 119.604 27.532C119.86 27.348 120.112 27.172 120.36 27.004C120.608 26.836 120.844 26.696 121.068 26.584C121.772 26.248 122.304 25.896 122.664 25.528C123.024 25.16 123.316 24.624 123.54 23.92C124.34 21.28 124.244 20.024 123.252 20.152C122.836 20.216 122.324 20.496 121.716 20.992C121.124 21.456 120.716 21.76 120.492 21.904C120.076 22.128 119.732 21.912 119.46 21.256C119.14 20.472 119.164 19.816 119.532 19.288C119.564 19.24 119.588 19.208 119.604 19.192C119.972 18.76 120.236 18.344 120.396 17.944C120.604 17.464 120.868 17.176 121.188 17.08C121.636 16.968 122.116 16.372 122.628 15.292C123.14 14.212 123.252 13.576 122.964 13.384C122.708 13.256 122.048 13.808 120.984 15.04C119.92 16.272 118.828 17.628 117.708 19.108C116.588 20.588 115.972 21.384 115.86 21.496C115.156 22.2 114.532 22.448 113.988 22.24C113.908 21.776 114.14 21.152 114.684 20.368C114.844 20.144 115.508 19.14 116.676 17.356C117.844 15.572 118.796 14.272 119.532 13.456C120.556 12.368 121.348 11.652 121.908 11.308C122.468 10.964 123.364 10.672 124.596 10.432C125.828 10.176 126.636 10.256 127.02 10.672C127.468 11.2 127.632 11.94 127.512 12.892C127.392 13.844 126.988 14.84 126.3 15.88C125.964 16.376 125.82 16.724 125.868 16.924C125.916 17.124 126.212 17.352 126.756 17.608C126.836 17.656 126.908 17.708 126.972 17.764C127.036 17.82 127.092 17.884 127.14 17.956C127.188 18.028 127.228 18.092 127.26 18.148C127.292 18.204 127.324 18.284 127.356 18.388C127.388 18.492 127.408 18.564 127.416 18.604C127.424 18.644 127.444 18.728 127.476 18.856C127.508 18.984 127.524 19.064 127.524 19.096C127.54 19.16 127.644 19.396 127.836 19.804C128.028 20.212 128.084 20.544 128.004 20.8C127.94 20.992 127.78 21.248 127.524 21.568C127.268 21.872 127.116 22.128 127.068 22.336C126.988 22.48 126.968 22.6 127.008 22.696C127.048 22.792 127.076 22.872 127.092 22.936C127.108 23 127.164 23.052 127.26 23.092C127.356 23.132 127.436 23.16 127.5 23.176C127.564 23.192 127.66 23.2 127.788 23.2C127.916 23.2 128.02 23.196 128.1 23.188C128.18 23.18 128.28 23.168 128.4 23.152C128.52 23.136 128.612 23.128 128.676 23.128C128.82 23.112 128.972 23.084 129.132 23.044C129.292 23.004 129.464 22.936 129.648 22.84C129.832 22.744 129.988 22.664 130.116 22.6C130.244 22.536 130.412 22.428 130.62 22.276C130.828 22.124 130.972 22.02 131.052 21.964C131.132 21.908 131.284 21.792 131.508 21.616C131.732 21.44 131.86 21.344 131.892 21.328ZM146.618 21.328C146.97 21.024 147.278 20.9 147.542 20.956C147.806 21.012 147.938 21.264 147.938 21.712C147.938 21.84 147.918 21.964 147.878 22.084C147.838 22.204 147.778 22.32 147.698 22.432C147.618 22.544 147.534 22.644 147.446 22.732C147.358 22.82 147.246 22.912 147.11 23.008C146.974 23.104 146.866 23.184 146.786 23.248C146.706 23.312 146.594 23.392 146.45 23.488C146.306 23.584 146.21 23.648 146.162 23.68C146.146 23.68 146.122 23.688 146.09 23.704C146.058 23.72 146.042 23.736 146.042 23.752C145.994 23.784 145.93 23.828 145.85 23.884C145.77 23.94 145.714 23.976 145.682 23.992C145.138 24.376 144.65 24.64 144.218 24.784C143.786 24.896 143.25 24.984 142.61 25.048C140.978 25.224 139.762 24.848 138.962 23.92C138.162 22.992 137.594 21.296 137.258 18.832C137.162 18.048 137.058 17.656 136.946 17.656C136.85 17.656 136.282 18.104 135.242 19C134.65 19.544 134.226 19.976 133.97 20.296C133.842 20.424 133.73 20.592 133.634 20.8C133.538 21.008 133.442 21.256 133.346 21.544C133.25 21.832 133.178 22.024 133.13 22.12C133.082 22.232 132.97 22.496 132.794 22.912L132.434 23.8C132.37 23.944 132.33 24.18 132.314 24.508C132.298 24.836 132.238 25.096 132.134 25.288C132.03 25.48 131.834 25.6 131.546 25.648C130.986 25.728 130.506 25.48 130.106 24.904C129.85 24.552 129.714 24.288 129.698 24.112C129.682 23.936 129.77 23.608 129.962 23.128C130.01 23.032 130.05 22.936 130.082 22.84C130.114 22.76 130.166 22.612 130.238 22.396C130.31 22.18 130.358 22.036 130.382 21.964C130.406 21.892 130.45 21.764 130.514 21.58C130.578 21.396 130.63 21.256 130.67 21.16C130.71 21.064 130.762 20.936 130.826 20.776C130.89 20.616 130.95 20.48 131.006 20.368C131.062 20.256 131.126 20.128 131.198 19.984C131.27 19.84 131.346 19.696 131.426 19.552C131.73 19.008 131.958 18.172 132.11 17.044C132.262 15.916 132.362 15.272 132.41 15.112C132.682 13.976 133.218 12.352 134.018 10.24C134.162 9.84 134.33 9.236 134.522 8.428C134.714 7.62 134.906 6.868 135.098 6.172C135.29 5.476 135.53 4.76 135.818 4.024C136.106 3.288 136.494 2.664 136.982 2.152C137.47 1.64 138.034 1.304 138.674 1.144C139.218 1.016 139.662 1.044 140.006 1.228C140.35 1.412 140.586 1.688 140.714 2.056C140.842 2.424 140.91 2.86 140.918 3.364C140.926 3.868 140.902 4.32 140.846 4.72C140.79 5.12 140.714 5.504 140.618 5.872C140.442 6.464 140.162 7.152 139.778 7.936C139.394 8.704 139.13 9.256 138.986 9.592C138.762 10.216 138.45 10.848 138.05 11.488C137.858 11.76 137.574 12.212 137.198 12.844C136.822 13.476 136.514 13.936 136.274 14.224C135.938 14.672 135.57 15.112 135.17 15.544C135.122 15.592 135.026 15.684 134.882 15.82C134.738 15.956 134.614 16.084 134.51 16.204C134.406 16.324 134.338 16.44 134.306 16.552C134.29 16.6 134.302 16.656 134.342 16.72C134.382 16.784 134.426 16.808 134.474 16.792C134.506 16.792 134.546 16.776 134.594 16.744C134.722 16.648 134.898 16.488 135.122 16.264C135.346 16.04 135.558 15.864 135.758 15.736C135.958 15.608 136.17 15.528 136.394 15.496C136.522 15.48 136.65 15.464 136.778 15.448C137.466 15.368 138.022 15.432 138.446 15.64C138.87 15.848 139.226 16.224 139.514 16.768C139.77 17.328 139.898 17.968 139.898 18.688C139.898 19.328 140.002 20.08 140.21 20.944C140.402 21.808 140.618 22.456 140.858 22.888C141.002 23.144 141.162 23.296 141.338 23.344C141.514 23.392 141.874 23.384 142.418 23.32C143.074 23.24 143.61 23.12 144.026 22.96C145.114 22.384 145.978 21.84 146.618 21.328ZM137.306 6.664C137.274 6.728 137.226 6.82 137.162 6.94C137.098 7.06 137.042 7.172 136.994 7.276C136.946 7.38 136.898 7.48 136.85 7.576C136.498 8.312 136.218 9.08 136.01 9.88C135.93 10.184 135.834 10.492 135.722 10.804C135.61 11.116 135.47 11.488 135.302 11.92C135.134 12.352 135.018 12.648 134.954 12.808C134.858 13.064 134.874 13.232 135.002 13.312C135.066 13.36 135.154 13.328 135.266 13.216C135.522 12.96 135.738 12.676 135.914 12.364C136.09 12.052 136.262 11.688 136.43 11.272C136.598 10.856 136.738 10.536 136.85 10.312C137.314 9.464 137.706 8.4 138.026 7.12C138.058 7.04 138.122 6.892 138.218 6.676C138.314 6.46 138.394 6.268 138.458 6.1C138.522 5.932 138.566 5.744 138.59 5.536C138.614 5.328 138.57 5.192 138.458 5.128C138.346 5.032 138.21 5.08 138.05 5.272C137.922 5.4 137.754 5.696 137.546 6.16C137.482 6.32 137.402 6.488 137.306 6.664Z" fill="#383D3B"/>
</svg>
